# xmcd
#
# Track frame offsets: 
#        150
#        17526
#        43750
#        74479
#        93584
#        113721
#
# Disc length: 1926 seconds
#
# Revision: 0
# Processed by: cddbd v1.5.2PL0 Copyright (c) Steve Scherf et al.
# Submitted via: ExactAudioCopyFreeDBPlugin 1.0
#
DISCID=4a078406
DTITLE=Jimmy Warren Band - Live At Last
DYEAR=2009
DGENRE=Blues
TTITLE0=Right Side Of Town
TTITLE1=Only The Blues Last
TTITLE2=Like You Use To Be
TTITLE3=Will It Ever Be The Same Again
TTITLE4=Another Chance
TTITLE5=I Just Landed In Your Town
EXTD=
EXTT0=
EXTT1=
EXTT2=
EXTT3=
EXTT4=
EXTT5=
PLAYORDER=
